<svg id="Layer_1" data-name="Layer 1" xmlns="http://www.w3.org/2000/svg" viewBox="0 0 73.5 55.12"><defs><style>.cls-1{fill:#d2e5b3;}.cls-2{fill:none;stroke:#000;stroke-miterlimit:10;stroke-width:0.9px;opacity:0;}.cls-3{fill:#3d4752;}</style></defs><title>flowchart-symbols</title><polygon class="cls-1" points="36.75 0.56 72.75 27.56 36.75 54.56 0.75 27.56 36.75 0.56"/><polygon class="cls-2" points="36.75 0.56 72.75 27.56 36.75 54.56 0.75 27.56 36.75 0.56"/><path class="cls-3" d="M25.5,27.26c0-1.46-.95-2.13-2.4-2.17h-1v4.33h1c1.44,0,2.4-.72,2.4-2.16m-2.24-2.87c1.84.09,3.09,1,3.09,2.87a2.67,2.67,0,0,1-2,2.69,12,12,0,0,1-3.07.18V24.39Z"/><path class="cls-3" d="M29.15,26.18c1.3,0,1.9.87,1.84,2.25h-3a1.2,1.2,0,0,0,1.25,1.17A1.28,1.28,0,0,0,30.31,29l.53.43a1.92,1.92,0,0,1-1.65.79,1.86,1.86,0,0,1-2-2,1.86,1.86,0,0,1,2-2m1.08,1.68a1.07,1.07,0,0,0-1.54-1,1.12,1.12,0,0,0-.75,1Z"/><path class="cls-3" d="M31.81,28.21a1.88,1.88,0,0,1,2-2,1.82,1.82,0,0,1,1.44.63l-.55.45a1.05,1.05,0,0,0-.88-.44,1.24,1.24,0,0,0-1.26,1.39,1.24,1.24,0,0,0,1.26,1.39,1.1,1.1,0,0,0,.92-.42l.51.46a1.77,1.77,0,0,1-1.43.6,1.9,1.9,0,0,1-2.07-2"/><path class="cls-3" d="M36.45,24.41a.5.5,0,0,1,.51.49.51.51,0,1,1-.51-.49m.38,5.72h-.76V26.29h.76v3.84Z"/><path class="cls-3" d="M38,27.81c-.5-1.26.95-2,2.14-1.47a1.3,1.3,0,0,1,.6.47l-.53.45a1,1,0,0,0-.89-.48c-.38,0-.71.12-.71.5,0,.59.92.51,1.39.73a1.08,1.08,0,0,1,.78,1c.06,1.56-2.45,1.51-3.08.55l.54-.46a1.24,1.24,0,0,0,1,.53c.42,0,.76-.14.76-.56,0-.73-1.27-.51-1.76-.95a.84.84,0,0,1-.26-.3"/><path class="cls-3" d="M42.14,24.41a.5.5,0,0,1,.51.49.51.51,0,1,1-.51-.49m.38,5.72h-.76V26.29h.76v3.84Z"/><path class="cls-3" d="M45.66,29.59a1.24,1.24,0,0,0,1.28-1.39,1.28,1.28,0,1,0-2.56,0,1.24,1.24,0,0,0,1.28,1.39m0-3.41a2,2,0,1,1-2.07,2A1.9,1.9,0,0,1,45.66,26.18Z"/><path class="cls-3" d="M48.79,30.13c0-1.28,0-2.61,0-3.84h.72c0,.16,0,.45,0,.63h0a1.34,1.34,0,0,1,1.25-.74c1,0,1.43.61,1.43,1.56v2.38h-.76V28c0-.68-.19-1.17-.87-1.17s-1,.57-1,1.26v2h-.76"/></svg>