<svg id="Layer_1" data-name="Layer 1" xmlns="http://www.w3.org/2000/svg" viewBox="0 0 72.9 36.9"><defs><style>.cls-1{fill:#d2e5b3;}.cls-2{fill:none;stroke:#000;stroke-miterlimit:10;stroke-width:0.9px;opacity:0;}.cls-3{fill:#3d4752;}</style></defs><title>flowchart-symbols</title><path class="cls-1" d="M58,.45c8,0,14.4,8.06,14.4,18s-6.44,18-14.4,18H14.85c-8,0-14.4-8.05-14.4-18s6.44-18,14.4-18Z"/><path class="cls-2" d="M58,.45c8,0,14.4,8.06,14.4,18s-6.44,18-14.4,18H14.85c-8,0-14.4-8.05-14.4-18s6.44-18,14.4-18Z"/><polyline class="cls-3" points="19 21.02 18.19 21.02 18.19 18.5 18.19 15.98 16.36 15.98 16.36 15.63 16.36 15.28 20.83 15.28 20.83 15.63 20.83 15.98 19 15.98 19 18.5 19 21.02"/><path class="cls-3" d="M22.51,17.07c1.3,0,1.9.87,1.84,2.25h-3a1.2,1.2,0,0,0,1.25,1.17,1.28,1.28,0,0,0,1.12-.58l.53.43a1.92,1.92,0,0,1-1.65.79,1.86,1.86,0,0,1-2-2,1.86,1.86,0,0,1,2-2m1.08,1.68a1.07,1.07,0,0,0-1.54-1,1.12,1.12,0,0,0-.75,1Z"/><path class="cls-3" d="M25.42,21c0-1.28,0-2.61,0-3.84h.72c0,.16,0,.48,0,.65h0a1.3,1.3,0,0,1,1.47-.72l0,.7A1.1,1.1,0,0,0,26.18,19v2h-.76"/><path class="cls-3" d="M29.1,17.81a1.34,1.34,0,0,1,1.22-.74,1.2,1.2,0,0,1,1.19.77,1.41,1.41,0,0,1,1.3-.77c1,0,1.43.61,1.43,1.56V21h-.76V18.88c0-.66-.19-1.17-.85-1.17-1.39,0-.87,2-1,3.3H30.9V18.73c0-.61-.21-1-.81-1s-1,.58-1,1.26v2h-.76c0-1.28,0-2.61,0-3.84H29c0,.16,0,.45,0,.63h0"/><path class="cls-3" d="M35.92,15.3a.5.5,0,0,1,.51.49.51.51,0,1,1-.51-.49M36.31,21h-.76V17.18h.76V21Z"/><path class="cls-3" d="M37.63,21c0-1.28,0-2.61,0-3.84h.72c0,.16,0,.45,0,.63h0a1.34,1.34,0,0,1,1.25-.74c1,0,1.43.61,1.43,1.56V21H40.3V18.88c0-.68-.19-1.17-.87-1.17s-1,.57-1,1.26v2h-.76"/><path class="cls-3" d="M43.63,20.51a1.09,1.09,0,0,0,1.11-1.33c-.83,0-1.9,0-1.9.73,0,.44.35.59.79.6m-1.56-.58c0-1.24,1.4-1.26,2.67-1.3,0-.65-.35-.95-.95-.95a1.6,1.6,0,0,0-1.09.45l-.4-.49a2.26,2.26,0,0,1,1.57-.58,1.42,1.42,0,0,1,1.6,1.51A23.93,23.93,0,0,0,45.52,21h-.69a2.56,2.56,0,0,1-.06-.55h0a1.47,1.47,0,0,1-1.29.65C42.66,21.11,42.06,20.75,42.06,19.93Z"/><path class="cls-3" d="M47.88,21.08c-.75,0-1.13-.43-1.12-1.2V17.8H46v-.62h.74v-1.1h.75v1.1h1v.62h-1v2c0,.44.13.64.54.65a1.09,1.09,0,0,0,.45-.1l0,.62a1.94,1.94,0,0,1-.65.11"/><path class="cls-3" d="M51.14,20.48a1.24,1.24,0,0,0,1.28-1.39,1.28,1.28,0,1,0-2.56,0,1.24,1.24,0,0,0,1.28,1.39m0-3.41a1.9,1.9,0,0,1,2.07,2,2.07,2.07,0,0,1-4.14,0A1.89,1.89,0,0,1,51.14,17.07Z"/><path class="cls-3" d="M54.26,21c0-1.28,0-2.61,0-3.84H55c0,.16,0,.48,0,.65h0a1.3,1.3,0,0,1,1.47-.72l0,.7A1.1,1.1,0,0,0,55,19v2h-.76"/></svg>