<svg id="Layer_1" data-name="Layer 1" xmlns="http://www.w3.org/2000/svg" viewBox="0 0 72.9 54.9"><defs><style>.cls-1{fill:#d2e5b3;}.cls-2{fill:none;stroke:#000;stroke-miterlimit:10;stroke-width:0.9px;opacity:0;}.cls-3{fill:#3d4752;}</style></defs><title>flowchart-symbols</title><rect class="cls-1" x="0.45" y="0.45" width="72" height="54"/><rect class="cls-2" x="0.45" y="0.45" width="72" height="54"/><path class="cls-3" d="M26.05,25.83c0-1-1.15-.92-2.19-.92v1.85c1,0,2.19.09,2.19-.94m.81,0c0,1.51-1.39,1.69-3,1.62V30h-.8V24.24h1.75C26,24.25,26.86,24.65,26.86,25.83Z"/><path class="cls-3" d="M27.47,30c0-1.28,0-2.61,0-3.84h.72c0,.16,0,.48,0,.65h0a1.3,1.3,0,0,1,1.47-.72l0,.7A1.1,1.1,0,0,0,28.23,28v2h-.76"/><path class="cls-3" d="M32.07,29.44A1.24,1.24,0,0,0,33.35,28a1.28,1.28,0,1,0-2.56,0,1.24,1.24,0,0,0,1.28,1.39m0-3.41a2,2,0,1,1,0,4,2,2,0,1,1,0-4Z"/><path class="cls-3" d="M34.94,28.05a1.88,1.88,0,0,1,2-2,1.82,1.82,0,0,1,1.44.63l-.55.45a1.05,1.05,0,0,0-.88-.44,1.24,1.24,0,0,0-1.26,1.39A1.24,1.24,0,0,0,37,29.44a1.1,1.1,0,0,0,.92-.42l.51.46a1.77,1.77,0,0,1-1.43.6,1.9,1.9,0,0,1-2.07-2"/><path class="cls-3" d="M40.93,26c1.3,0,1.9.87,1.84,2.25h-3A1.2,1.2,0,0,0,41,29.44a1.28,1.28,0,0,0,1.12-.58l.53.43a1.92,1.92,0,0,1-1.65.79,1.86,1.86,0,0,1-2-2,1.86,1.86,0,0,1,2-2M42,27.71a1.07,1.07,0,0,0-1.54-1,1.12,1.12,0,0,0-.75,1Z"/><path class="cls-3" d="M43.7,27.65c-.5-1.26.95-2,2.14-1.47a1.3,1.3,0,0,1,.6.47l-.53.45a1,1,0,0,0-.89-.48c-.38,0-.71.12-.71.5,0,.59.92.51,1.39.73a1.08,1.08,0,0,1,.78,1c.06,1.56-2.45,1.51-3.08.55l.54-.46a1.24,1.24,0,0,0,1,.53c.42,0,.76-.14.76-.56,0-.73-1.27-.51-1.76-.95a.84.84,0,0,1-.26-.3"/><path class="cls-3" d="M47.3,27.65c-.5-1.26.95-2,2.14-1.47a1.3,1.3,0,0,1,.6.47l-.53.45a1,1,0,0,0-.89-.48c-.38,0-.71.12-.71.5,0,.59.92.51,1.39.73a1.08,1.08,0,0,1,.78,1c.06,1.56-2.45,1.51-3.08.55l.54-.46a1.24,1.24,0,0,0,1,.53c.42,0,.76-.14.76-.56,0-.73-1.27-.51-1.76-.95a.84.84,0,0,1-.26-.3"/></svg>